<svg width="25" height="22" viewBox="0 0 25 22" fill="none" xmlns="http://www.w3.org/2000/svg">
<path fill-rule="evenodd" clip-rule="evenodd" d="M8.26205 17.4961C8.68405 17.4961 9.02705 17.7961 9.02705 18.1652C9.02705 18.5343 8.68405 18.8334 8.26205 18.8334C7.84005 18.8334 7.49805 18.5343 7.49805 18.1652C7.49805 17.7961 7.84005 17.4961 8.26205 17.4961Z" stroke="#222222" stroke-width="1.5" stroke-linecap="round" stroke-linejoin="round"/>
<path fill-rule="evenodd" clip-rule="evenodd" d="M19.5127 17.4961C19.9347 17.4961 20.2777 17.7961 20.2777 18.1652C20.2777 18.5343 19.9347 18.8334 19.5127 18.8334C19.0907 18.8334 18.7477 18.5343 18.7477 18.1652C18.7477 17.7961 19.0907 17.4961 19.5127 17.4961Z" stroke="#222222" stroke-width="1.5" stroke-linecap="round" stroke-linejoin="round"/>
<path d="M3.59021 3.01013L5.66988 3.32485L6.63273 13.3547C6.71072 14.1721 7.4916 14.7997 8.42945 14.7997H19.3397C20.2356 14.7997 20.9955 14.2245 21.1245 13.4482L22.0733 7.71514C22.1903 7.0079 21.5634 6.37497 20.7465 6.37497H6.00383" stroke="#222222" stroke-width="1.5" stroke-linecap="round" stroke-linejoin="round"/>
<path d="M14.9639 9.60797H17.7369" stroke="#222222" stroke-width="1.5" stroke-linecap="round" stroke-linejoin="round"/>
</svg>
