<svg width="41" height="38" viewBox="0 0 41 38" fill="none" xmlns="http://www.w3.org/2000/svg">
<path d="M38.1525 11.3417H31.3693C30.1988 11.3417 29.2464 12.2945 29.2464 13.4658V21.2731H26.7092C26.8502 20.7605 26.9025 20.1559 26.8682 19.4523V19.4523C26.8131 16.4789 26.2736 13.973 25.2645 12.0041C24.4809 10.4754 23.5664 9.55891 22.7817 9.01102C23.7027 8.06406 24.2352 6.71695 24.2352 5.16328C24.2352 2.36789 22.0053 0.09375 19.2645 0.09375C16.5236 0.09375 14.2937 2.36789 14.2937 5.16328C14.2937 5.48695 14.556 5.74922 14.8796 5.74922H15.2777C15.2411 5.97031 15.2216 6.19562 15.2216 6.42445C15.2216 8.39445 16.6292 10.0409 18.4903 10.4099C18.2952 11.1343 18.1983 11.9884 18.1987 12.9587L16.7373 14.2157L13.1814 14.5033L9.07961 13.1473C8.70367 13.0223 8.27758 12.8811 7.90789 13.1477C7.54359 13.4105 7.54359 13.8708 7.54359 14.022V17.0716C7.54359 17.3952 7.80594 17.6575 8.12953 17.6575H8.82711L7.75719 21.3547C7.66727 21.6655 7.84633 21.9905 8.15719 22.0804C8.4682 22.1708 8.79297 21.9912 8.88297 21.6805L10.0472 17.6575H11.713C9.6411 23.9756 10.8233 28.193 12.6404 32.461H11.5871L7.20016 27.5559L8.12781 24.3512C8.21781 24.0403 8.03875 23.7154 7.72789 23.6255C7.41703 23.5355 7.09211 23.7146 7.00211 24.0254L6.11484 27.0908C3.37063 27.045 0.915938 28.937 0.290391 31.6591C0.21797 31.9745 0.414766 32.2888 0.730001 32.3613L1.5618 32.5527C1.3493 34.7599 2.80281 36.8423 5.01953 37.3526C5.35617 37.4302 5.6957 37.4684 6.03289 37.4684C6.86445 37.4684 7.68141 37.2353 8.40399 36.7824C9.25203 36.251 9.88391 35.4698 10.2259 34.5465L10.8822 34.6975C11.0777 34.7427 11.2632 34.7656 11.4485 34.6659C11.6209 34.573 11.7355 34.4055 11.7785 34.2163C11.8198 34.0245 11.8512 33.8296 11.873 33.6329H24.1275C24.5194 36.0694 26.5924 37.906 29.0683 37.906C31.5441 37.906 33.6173 36.0694 34.0091 33.6329H34.4563C34.4563 33.6329 34.5451 33.6339 34.5653 33.6339C34.7329 33.6339 34.9749 33.6153 35.1737 33.4131C35.2731 33.312 35.3898 33.1309 35.3809 32.8434C35.3644 32.2931 35.2818 31.7615 35.1409 31.2562C35.6076 28.4227 35.1585 26.697 34.4928 25.3465C34.9137 25.0706 35.1927 24.5953 35.1927 24.0553V22.4449H38.1523C39.3229 22.4449 40.2752 21.4921 40.2752 20.3209V13.4657C40.2754 12.2945 39.3231 11.3417 38.1525 11.3417ZM7.78172 35.7896C7.03164 36.2597 6.14414 36.4091 5.28258 36.2108H5.2825C3.69672 35.8458 2.63875 34.3916 2.71586 32.8193L9.07156 34.2821C8.80859 34.9012 8.36367 35.4249 7.78172 35.7896ZM10.7136 33.4563L1.59914 31.359C2.3025 29.4329 4.19531 28.1579 6.2643 28.2676L10.7292 33.2598C10.7253 33.3257 10.7202 33.3912 10.7136 33.4563ZM19.564 23.2458C19.3939 23.6944 19.3939 24.2474 19.3939 25.013V27.2241H17.2484V24.1906C17.2484 20.7611 19.1201 20.1499 19.9601 20.0491H25.7045C25.6814 20.8274 25.5058 21.3807 25.1723 21.7319C24.7838 22.1411 24.1188 22.3405 23.1395 22.3414L21.0363 22.3436C20.2863 22.3437 19.7909 22.6471 19.564 23.2458ZM19.3939 28.3959V29.7949C19.3886 29.7949 19.3831 29.7949 19.3775 29.7949H15.2155C15.2623 29.361 15.3975 29.0252 15.6195 28.7929C15.9496 28.4474 16.4146 28.3959 16.6624 28.3959H19.3939ZM25.6787 18.8773H20.35C20.136 18.2039 19.9452 17.4666 19.7884 16.7087L21.4084 15.6572C22.2928 15.0829 22.7529 14.2714 22.6707 13.4307C22.5979 12.6855 22.0913 12.0198 21.38 11.7348C20.7305 11.4747 20.0313 11.5564 19.4134 11.9515C19.4644 11.391 19.5592 10.8907 19.6964 10.466C19.9462 10.4402 20.1942 10.3914 20.4378 10.3198C20.9337 10.2046 21.3919 10.0211 21.8055 9.77773C22.9341 10.452 25.4161 12.6388 25.6787 18.8773ZM15.5084 4.57742C15.7848 2.70523 17.3638 1.2657 19.2645 1.2657C21.3591 1.2657 23.0634 3.01422 23.0634 5.16336C23.0634 6.91133 22.2252 8.32016 20.8736 8.94016V5.85711C20.8736 5.32328 20.6693 4.66844 19.6963 4.57984C19.6787 4.5782 19.6609 4.57742 19.6432 4.57742H15.5084ZM16.3935 6.42453C16.3935 6.19328 16.4198 5.96742 16.4716 5.7493H19.6145C19.6506 5.7532 19.677 5.75742 19.6959 5.76125C19.699 5.78297 19.7016 5.81422 19.7016 5.85711V9.28492C19.562 9.30547 19.4216 9.31586 19.2812 9.31594C19.2798 9.31594 19.2785 9.31594 19.2773 9.31594C17.687 9.31445 16.3935 8.01797 16.3935 6.42453ZM15.6339 15.4808L17.0217 15.3685C17.1454 15.3586 17.2627 15.3096 17.3568 15.2288L19.8615 13.0745L19.8619 13.0741C20.1041 12.8654 20.3626 12.7584 20.6143 12.7584C20.7263 12.7584 20.837 12.7796 20.9443 12.8226C21.2539 12.9466 21.4738 13.23 21.5045 13.5445C21.5432 13.9404 21.2824 14.3416 20.7705 14.6741L17.9795 16.4857H15.6341V15.4808H15.6339ZM13.1577 15.6811L14.462 15.5756V16.4859H12.9463C12.7498 16.4859 12.702 16.3226 12.6963 16.1856C12.6931 16.108 12.7005 15.7186 13.1577 15.6811ZM11.7709 15.2766C11.5944 15.5659 11.512 15.9045 11.5255 16.2336C11.529 16.3188 11.5398 16.4009 11.555 16.4809C11.555 16.4826 11.5541 16.4842 11.5544 16.4858H8.71563V14.2613L11.7731 15.272C11.7722 15.2736 11.7717 15.2751 11.7709 15.2766ZM12.9496 17.6577H18.1528C18.266 17.6577 18.3769 17.6248 18.4718 17.5632L18.737 17.391C18.8646 17.9549 19.0099 18.5037 19.1682 19.022C17.9732 19.3747 16.0764 20.5146 16.0764 24.1905V27.2828C15.6653 27.3658 15.179 27.5575 14.7722 27.9832C14.3434 28.432 14.0984 29.04 14.0397 29.7948H12.8577C11.6666 26.3622 11.2136 22.7094 12.9496 17.6577ZM13.9154 32.4591C13.6988 31.961 13.4901 31.4648 13.2935 30.9668H19.3774C20.1659 30.9668 20.5657 30.6078 20.5657 29.8999V27.8099V25.5988H25.1906C25.5143 25.5988 25.7766 25.3366 25.7766 25.0129C25.7766 24.6892 25.5143 24.427 25.1906 24.427H20.5699C20.5774 24.0941 20.5988 23.822 20.6598 23.6612C20.6894 23.583 20.715 23.5155 21.0368 23.5155L23.1405 23.5133C24.4581 23.512 25.4007 23.1933 26.0222 22.5387C26.0509 22.5084 26.0781 22.4766 26.1054 22.445H29.8324H34.0211V24.0554C34.0211 24.2568 33.8513 24.427 33.6504 24.427H27.8172C27.4935 24.427 27.2313 24.6892 27.2313 25.0129C27.2313 25.3366 27.4935 25.5988 27.8172 25.5988H33.3061C33.7692 26.4584 34.1858 27.528 34.161 29.218C33.0018 27.6077 31.1252 26.5723 28.9953 26.5723C27.2848 26.5723 25.6798 27.2433 24.4759 28.4616C23.4075 29.5427 22.7659 30.9457 22.6338 32.461L13.9154 32.4591ZM29.0684 36.7343C27.2366 36.7343 25.6918 35.4145 25.318 33.633H32.8187C32.4448 35.4144 30.9 36.7343 29.0684 36.7343ZM33.4843 32.4612H24.6526H23.8108C24.0984 29.8117 26.3137 27.7442 28.9953 27.7442C31.3496 27.7442 33.3267 29.2966 33.9815 31.4698C33.9836 31.4767 33.9857 31.4836 33.988 31.4904C34.0806 31.8022 34.146 32.1267 34.1814 32.4612H33.4843ZM39.1035 20.3209C39.1035 20.846 38.6769 21.2731 38.1525 21.2731H30.4183V18.2473H39.1035V20.3209ZM39.1035 17.0754H30.4183V15.8292H39.1035V17.0754ZM39.1035 14.6573H30.4183V13.4658C30.4183 12.9407 30.8449 12.5136 31.3693 12.5136H38.1525C38.6769 12.5136 39.1035 12.9408 39.1035 13.4658V14.6573Z" fill="#09A66D"/>
</svg>
