<svg width="41" height="40" viewBox="0 0 41 40" fill="none" xmlns="http://www.w3.org/2000/svg">
<g clip-path="url(#clip0_0_95)">
<path d="M3.31226 11.657H9.49179C9.81538 11.657 10.0777 11.3948 10.0777 11.0711C10.0777 10.7474 9.81538 10.4852 9.49179 10.4852H3.31226C2.98866 10.4852 2.72632 10.7474 2.72632 11.0711C2.72632 11.3948 2.98858 11.657 3.31226 11.657Z" fill="#09A66D"/>
<path d="M9.28021 14.4779H6.83911C6.51552 14.4779 6.25317 14.7402 6.25317 15.0639C6.25317 15.3875 6.51552 15.6498 6.83911 15.6498H9.28021C9.6038 15.6498 9.86614 15.3875 9.86614 15.0639C9.86614 14.7402 9.6038 14.4779 9.28021 14.4779Z" fill="#09A66D"/>
<path d="M0.861328 18.5412H6.83883C7.16242 18.5412 7.42477 18.2789 7.42477 17.9553C7.42477 17.6316 7.16242 17.3693 6.83883 17.3693H0.861328C0.537734 17.3693 0.275391 17.6316 0.275391 17.9553C0.275391 18.2789 0.537734 18.5412 0.861328 18.5412Z" fill="#09A66D"/>
<path d="M10.0777 28.9288C10.0777 28.6052 9.81538 28.3429 9.49179 28.3429H3.31226C2.98866 28.3429 2.72632 28.6052 2.72632 28.9288C2.72632 29.2525 2.98866 29.5148 3.31226 29.5148H9.49179C9.81538 29.5148 10.0777 29.2525 10.0777 28.9288Z" fill="#09A66D"/>
<path d="M9.28021 24.3503H6.83911C6.51552 24.3503 6.25317 24.6125 6.25317 24.9362C6.25317 25.2599 6.51552 25.5222 6.83911 25.5222H9.28021C9.6038 25.5222 9.86614 25.2599 9.86614 24.9362C9.86614 24.6125 9.6038 24.3503 9.28021 24.3503Z" fill="#09A66D"/>
<path d="M7.42477 22.0448C7.42477 21.7211 7.16242 21.4588 6.83883 21.4588H0.861328C0.537734 21.4588 0.275391 21.7211 0.275391 22.0448C0.275391 22.3684 0.537734 22.6307 0.861328 22.6307H6.83883C7.16242 22.6307 7.42477 22.3684 7.42477 22.0448Z" fill="#09A66D"/>
<path d="M25.2385 12.9555C25.5622 12.9555 25.8245 12.6932 25.8245 12.3696V11.4752C25.8245 11.1515 25.5622 10.8893 25.2385 10.8893C24.9149 10.8893 24.6526 11.1515 24.6526 11.4752V12.3696C24.6526 12.6932 24.9149 12.9555 25.2385 12.9555Z" fill="#09A66D"/>
<path d="M31.681 13.5577C31.4521 13.329 31.0812 13.329 30.8524 13.5577L30.22 14.1901C29.9911 14.419 29.9911 14.79 30.22 15.0188C30.4489 15.2476 30.8198 15.2475 31.0486 15.0188L31.681 14.3864C31.9098 14.1575 31.9098 13.7866 31.681 13.5577Z" fill="#09A66D"/>
<path d="M32.8684 19.4141C32.5447 19.4141 32.2825 19.6763 32.2825 20C32.2825 20.3237 32.5447 20.5859 32.8684 20.5859H33.7627C34.0864 20.5859 34.3486 20.3237 34.3486 20C34.3486 19.6763 34.0864 19.4141 33.7627 19.4141H32.8684Z" fill="#09A66D"/>
<path d="M31.0486 24.9812C30.8197 24.7524 30.4488 24.7524 30.22 24.9812C29.9911 25.2101 29.9911 25.581 30.22 25.8099L30.8524 26.4423C31.0814 26.6711 31.4522 26.6711 31.6811 26.4423C31.9099 26.2134 31.9099 25.8425 31.6811 25.6136L31.0486 24.9812Z" fill="#09A66D"/>
<path d="M24.6526 27.6305V28.5248C24.6526 28.8485 24.9149 29.1107 25.2385 29.1107C25.5622 29.1107 25.8245 28.8485 25.8245 28.5248V27.6305C25.8245 27.3068 25.5622 27.0446 25.2385 27.0446C24.9149 27.0446 24.6526 27.3069 24.6526 27.6305Z" fill="#09A66D"/>
<path d="M19.4288 24.9812L18.7964 25.6136C18.5675 25.8425 18.5675 26.2135 18.7964 26.4423C19.0253 26.6711 19.3962 26.6711 19.625 26.4423L20.2574 25.8099C20.4862 25.581 20.4862 25.21 20.2574 24.9812C20.0286 24.7524 19.6576 24.7524 19.4288 24.9812Z" fill="#09A66D"/>
<path d="M16.7134 19.4141C16.3898 19.4141 16.1274 19.6763 16.1274 20C16.1274 20.3237 16.3898 20.5859 16.7134 20.5859H17.6078C17.9313 20.5859 18.1937 20.3237 18.1937 20C18.1937 19.6763 17.9313 19.4141 17.6078 19.4141H16.7134Z" fill="#09A66D"/>
<path d="M20.2574 14.1901L19.625 13.5577C19.3961 13.329 19.0251 13.329 18.7964 13.5577C18.5675 13.7866 18.5675 14.1575 18.7964 14.3864L19.4288 15.0188C19.6577 15.2476 20.0286 15.2475 20.2574 15.0188C20.4862 14.79 20.4862 14.419 20.2574 14.1901Z" fill="#09A66D"/>
<path d="M28.3893 20C28.3893 19.6764 28.127 19.4141 27.8034 19.4141H25.8245V15.0638C25.8245 14.7401 25.5622 14.4778 25.2385 14.4778C24.9149 14.4778 24.6526 14.7401 24.6526 15.0638V20C24.6526 20.3237 24.9149 20.586 25.2385 20.586H27.8034C28.127 20.586 28.3893 20.3237 28.3893 20Z" fill="#09A66D"/>
<path d="M36.3487 19.9033C36.6718 19.8837 36.9177 19.606 36.8981 19.283C36.5254 13.1343 31.4038 8.31784 25.2383 8.31784C18.7968 8.31784 13.5562 13.5585 13.5562 20.0001C13.5562 26.4417 18.7968 31.6823 25.2383 31.6823C31.0094 31.6823 35.9337 27.454 36.7903 21.7482C36.8383 21.4282 36.6179 21.1298 36.2978 21.0817C35.9786 21.0339 35.6794 21.2541 35.6314 21.5742C34.8619 26.7003 30.4356 30.5105 25.2383 30.5105C19.443 30.5105 14.728 25.7956 14.728 20.0002C14.728 14.2048 19.443 9.48979 25.2383 9.48979C30.7853 9.48979 35.393 13.8227 35.7283 19.3541C35.7479 19.6769 36.0254 19.9221 36.3487 19.9033Z" fill="#09A66D"/>
<path d="M25.2388 4.96323C23.1778 4.96323 21.1585 5.3908 19.2999 6.19041H8.96167C8.63808 6.19041 8.37573 6.45268 8.37573 6.77635C8.37573 7.10002 8.63808 7.36229 8.96167 7.36229H17.0955C15.9957 8.0701 14.9833 8.92385 14.0907 9.90948C13.8735 10.1492 13.8917 10.5198 14.1316 10.7371C14.3715 10.9543 14.7419 10.936 14.9592 10.6961C17.5844 7.79752 21.3312 6.1351 25.2388 6.1351C32.8839 6.1351 39.1038 12.3549 39.1038 20C39.1038 27.6451 32.884 33.8649 25.2388 33.8649C17.5936 33.8649 11.3739 27.6452 11.3739 20C11.3739 17.3228 12.1386 14.7244 13.5853 12.4855C13.761 12.2137 13.683 11.851 13.4112 11.6754C13.1394 11.4999 12.7767 11.5777 12.601 11.8496C11.0315 14.2783 10.202 17.0967 10.202 20C10.202 25.2942 12.9525 29.9577 17.0992 32.6378H8.96175C8.63815 32.6378 8.37581 32.9 8.37581 33.2237C8.37581 33.5474 8.63815 33.8096 8.96175 33.8096H19.2918C21.1168 34.5986 23.1275 35.0368 25.2389 35.0368C33.5301 35.0368 40.2756 28.2914 40.2756 20C40.2756 11.7087 33.5301 4.96323 25.2388 4.96323Z" fill="#09A66D"/>
</g>
<defs>
<clipPath id="clip0_0_95">
<rect width="40" height="40" fill="white" transform="translate(0.275391)"/>
</clipPath>
</defs>
</svg>
