<svg width="149" height="149" viewBox="0 0 149 149" fill="none" xmlns="http://www.w3.org/2000/svg">
<path d="M90.5 73.5C86.5 68.3 80.5 72 78 74.5C79.2 73.7 83.1667 73.5 85 73.5001C86.5 73.5001 89.7 74.7001 90.5 73.5Z" fill="#7DBF2C"/>
<path d="M68.5 58.0001C64.3334 53.6667 57.1 44.4001 61.5 42.0001C64 41.0001 70.0001 52.0001 68.5 58.0001Z" fill="#7DBF2C"/>
<path d="M90.5 73.5C86.5 68.3 80.5 72 78 74.5C79.2 73.7 83.1667 73.5 85 73.5001C86.5 73.5001 89.7 74.7001 90.5 73.5Z" stroke="#7DBF2C" stroke-width="0.5"/>
<path d="M68.5 58.0001C64.3334 53.6667 57.1 44.4001 61.5 42.0001C64 41.0001 70.0001 52.0001 68.5 58.0001Z" stroke="#7DBF2C" stroke-width="0.5"/>
<path d="M77 73C79.8333 68 88 59.2 98 64C92.5 65.5 85 65.5 77 73Z" fill="#7DBF2C" stroke="#7DBF2C" stroke-width="0.5"/>
<path d="M97.5 61.4999C95.5 37.0999 76 55 75.5 68.9999C76.5 68.9999 85 56.5 88 55.5C87 56 84 61.4999 84.5 62.5C86.1 60.5 93.8333 60.9999 97.5 61.4999Z" fill="#7DBF2C" stroke="#7DBF2C" stroke-width="0.5"/>
<path d="M68.0001 34.5C67.9479 34.5174 67.8952 34.5354 67.8421 34.554C66.0267 35.3503 66.4864 41.5273 66.0001 42.5C60.4976 38.5696 64.8431 35.6047 67.8421 34.554C67.8929 34.5317 67.9456 34.5136 68.0001 34.5Z" fill="#7DBF2C"/>
<path d="M68.0001 34.5C65.0001 35.5 60.4001 38.5 66.0001 42.5C66.5 41.5 66.0002 35 68.0001 34.5Z" stroke="#7DBF2C" stroke-width="0.5"/>
<path d="M76 31.5C71.6667 31.5 64.4 35.6 70 52C70.5 53 71 41 76 31.5Z" fill="#7DBF2C" stroke="#7DBF2C" stroke-width="0.5"/>
<path d="M73.4999 65C69.8999 56.2 74.6666 38 77.4999 30C79 31.3333 82.2 35.2 83 40C84 46 75 61.5 73.4999 65Z" fill="#7DBF2C" stroke="#7DBF2C" stroke-width="0.5"/>
<path d="M88.5 39.5C86.5 42.5 82.6 48.8 83 50C85 49.5 92 44.5 88.5 39.5Z" fill="#7DBF2C" stroke="#7DBF2C" stroke-width="0.5"/>
<path d="M76.5 85V76.5C77.5 78 78 79 79 81C94.5 79 99 87.5 98 87C94.8 83.8 82.3333 84.3333 76.5 85Z" fill="#7DBF2C" stroke="#7DBF2C" stroke-width="0.5"/>
<path d="M45.5001 72C61.1001 65.6 66.6668 71.6667 67.5001 75.5C66.5002 68 58.5001 64.9999 52.5001 63.9999C46.5001 62.9999 43.5001 72 45.5001 72Z" fill="#7DBF2C" stroke="#7DBF2C" stroke-width="0.5"/>
<path d="M64 72.9999C61.8333 71.8332 56.9 70.1999 54.5 72.9999C54.5 74.5 59 76.4998 64 72.9999Z" fill="#7DBF2C" stroke="#7DBF2C" stroke-width="0.5"/>
<path d="M61.4999 64.4999C60.1666 60.3333 56.4999 52.9999 52.4999 56.9999C47.4999 61.9999 59.9999 64.4999 61.4999 64.4999Z" fill="#7DBF2C" stroke="#7DBF2C" stroke-width="0.5"/>
<path d="M59.0001 47.5C56.0001 46.1667 51.0001 42.3 55.0001 37.5C58 38 59.5002 46.5 59.0001 47.5Z" fill="#7DBF2C" stroke="#7DBF2C" stroke-width="0.5"/>
<path d="M60.9999 58.5C55.5 52 53.6666 47.6667 54 46C54.9999 46.5 58.3999 48.9 63.9999 54.5C69.5999 60.1 69.9999 66.8333 69.4999 69.5C69.4999 69.6667 68.3999 69.1 63.9999 65.5C62.9999 64.5 63.9999 62.5 60.9999 58.5Z" fill="#7DBF2C" stroke="#7DBF2C" stroke-width="0.5"/>
<path d="M66.5 87C64.1 87 52.5 92.6667 47 95.5C49.4 92.3 60.6667 86.5 66 84L67.5 78C67.6667 80.5 67.7 85.8 66.5 87Z" fill="#7DBF2C" stroke="#7DBF2C" stroke-width="0.5"/>
<path d="M102.5 99.5002C90.9 81.1002 56.6667 94.1669 41 103C48 97.0005 58 90.5001 80.5 87.5001C103 84.5001 103.5 101.5 102.5 99.5002Z" fill="#498636" stroke="#498636" stroke-width="0.5"/>
<path d="M91.5 44C100.167 49.5 114.5 66.5 102.5 90.5" stroke="#498636"/>
<path d="M52.0001 44.5C42.6667 51.3333 28.1001 71 44.5001 95" stroke="#498636"/>
</svg>
