<svg width="56" height="56" viewBox="0 0 56 56" fill="none" xmlns="http://www.w3.org/2000/svg">
<circle cx="28" cy="28" r="28" fill="#F3FBF8"/>
<g clip-path="url(#clip0_0_59)">
<path d="M28.0022 12C23.4308 12 19.6938 15.7369 19.6938 20.3084C19.6938 24.8799 23.4308 28.6168 28.0022 28.6168C32.5737 28.6168 36.3106 24.8799 36.3106 20.3084C36.3106 15.7369 32.5737 12 28.0022 12Z" fill="#09A66D"/>
<path d="M42.2608 35.2563C42.0431 34.7121 41.7528 34.2041 41.4263 33.7325C39.7574 31.2653 37.1815 29.6327 34.279 29.2336C33.9162 29.1973 33.5171 29.2698 33.2268 29.4875C31.703 30.6123 29.889 31.1927 28.0023 31.1927C26.1156 31.1927 24.3016 30.6123 22.7778 29.4875C22.4875 29.2698 22.0884 29.161 21.7256 29.2336C18.8231 29.6327 16.2109 31.2653 14.5783 33.7325C14.2517 34.2041 13.9615 34.7484 13.7438 35.2563C13.635 35.474 13.6712 35.728 13.7801 35.9457C14.0703 36.4536 14.4331 36.9616 14.7596 37.3969C15.2676 38.0863 15.8118 38.703 16.4286 39.2835C16.9365 39.7914 17.517 40.2631 18.0976 40.7348C20.9637 42.8754 24.4105 44 27.966 44C31.5216 44 34.9683 42.8753 37.8345 40.7348C38.415 40.2994 38.9955 39.7914 39.5035 39.2835C40.084 38.703 40.6644 38.0862 41.1724 37.3969C41.5352 36.9252 41.8618 36.4536 42.152 35.9457C42.3333 35.728 42.3696 35.4739 42.2608 35.2563Z" fill="#09A66D"/>
</g>
<defs>
<clipPath id="clip0_0_59">
<rect width="32" height="32" fill="white" transform="translate(12 12)"/>
</clipPath>
</defs>
</svg>
