<svg width="24" height="24" viewBox="0 0 24 24" fill="none" xmlns="http://www.w3.org/2000/svg">
<g clip-path="url(#clip0_0_13)">
<path d="M24.0001 4.5585C23.1076 4.95 22.1566 5.2095 21.1651 5.3355C22.1851 4.7265 22.9636 3.7695 23.3296 2.616C22.3786 3.183 21.3286 3.5835 20.2096 3.807C19.3066 2.8455 18.0196 2.25 16.6156 2.25C13.8916 2.25 11.6986 4.461 11.6986 7.1715C11.6986 7.5615 11.7316 7.9365 11.8126 8.2935C7.72212 8.094 4.10262 6.1335 1.67112 3.147C1.24662 3.8835 0.997622 4.7265 0.997622 5.634C0.997622 7.338 1.87512 8.8485 3.18312 9.723C2.39262 9.708 1.61712 9.4785 0.960122 9.117C0.960122 9.132 0.960122 9.1515 0.960122 9.171C0.960122 11.562 2.66562 13.548 4.90212 14.0055C4.50162 14.115 4.06512 14.1675 3.61212 14.1675C3.29712 14.1675 2.97912 14.1495 2.68062 14.0835C3.31812 16.032 5.12712 17.4645 7.27812 17.511C5.60412 18.8205 3.47862 19.6095 1.17762 19.6095C0.774122 19.6095 0.387122 19.5915 0.00012207 19.542C2.17962 20.9475 4.76262 21.75 7.54812 21.75C16.6021 21.75 21.5521 14.25 21.5521 7.749C21.5521 7.5315 21.5446 7.3215 21.5341 7.113C22.5106 6.42 23.3311 5.5545 24.0001 4.5585Z" fill="#222222"/>
</g>
<defs>
<clipPath id="clip0_0_13">
<rect width="24" height="24" fill="white"/>
</clipPath>
</defs>
</svg>
